<svg width="264" height="49" viewBox="0 0 264 49" fill="none" xmlns="http://www.w3.org/2000/svg">
<g clip-path="url(#clip0_602_624)">
<path d="M67.2499 38.0551C64.217 38.0551 61.7185 37.323 59.7542 35.8589C58.8074 35.1789 58.0166 34.3098 57.4334 33.3083C56.8502 32.3067 56.4878 31.1953 56.3696 30.0464H61.544C61.8187 31.1575 62.4666 32.1444 63.3824 32.8466C64.3482 33.628 65.6212 34.0174 67.2012 34.0147C68.7812 34.0121 69.9095 33.6934 70.5858 33.0587C70.9144 32.7917 71.1798 32.4572 71.3635 32.0785C71.5471 31.6998 71.6446 31.2862 71.6491 30.8665C71.6491 29.6664 71.158 28.8423 70.1759 28.4143C68.8583 27.8869 67.4887 27.4954 66.0892 27.2462C64.7189 26.9537 63.37 26.5715 62.0512 26.1021C60.8017 25.6777 59.6626 24.9865 58.7153 24.0779C58.2621 23.603 57.9117 23.042 57.6856 22.4292C57.4596 21.8164 57.3625 21.1646 57.4004 20.5136C57.3843 19.5283 57.5929 18.5519 58.0109 17.6567C58.4288 16.7614 59.0454 15.9701 59.8151 15.3412C61.4384 13.9598 63.6948 13.269 66.5844 13.269C69.2628 13.269 71.4273 13.9038 73.0776 15.1732C74.728 16.4426 75.7033 18.2388 76.0037 20.5616H71.0688C71.011 20.0867 70.8547 19.6285 70.6097 19.2156C70.3646 18.8027 70.036 18.4439 69.6443 18.1614C68.7095 17.549 67.5998 17.2489 66.4788 17.3054C65.1883 17.3054 64.1859 17.5654 63.4798 18.1054C63.1472 18.3314 62.8762 18.6347 62.6907 18.9884C62.5053 19.3422 62.4111 19.7355 62.4165 20.1336C62.4165 20.9577 62.9075 21.6084 63.8896 22.0858C65.1368 22.6503 66.4415 23.0821 67.7816 23.3739C69.2912 23.6911 70.7816 24.0917 72.2457 24.574C73.5048 24.9656 74.6446 25.6615 75.5613 26.5981C76.3973 27.4862 76.8153 28.789 76.8153 30.5065C76.8482 31.5368 76.6359 32.5604 76.1954 33.4954C75.755 34.4304 75.0986 35.2508 74.2789 35.8909C72.5555 37.323 70.2098 38.0391 67.2418 38.0391" fill="#232734"/>
<path d="M89.6398 37.483C87.2859 37.483 85.4164 36.9189 84.0312 35.7909C82.646 34.6628 81.952 32.6519 81.9493 29.7584V18.0814H77.8423V13.8411H81.9493L82.5783 7.84058H87.0749V13.8411H93.8441V18.0814H87.0749V29.7584C87.0749 31.0625 87.359 31.9585 87.9231 32.4546C88.4872 32.9506 89.4612 33.1906 90.8491 33.1906H93.6047V37.483H89.6398Z" fill="#232734"/>
<path d="M97.1719 37.483V13.841H101.766L102.2 18.3214C103.008 16.7993 104.22 15.5218 105.706 14.6251C107.357 13.682 109.242 13.2123 111.149 13.269V18.5574H109.753C108.454 18.5357 107.163 18.771 105.958 19.2495C104.835 19.7194 103.899 20.5402 103.296 21.5857C102.638 22.6818 102.308 24.1992 102.306 26.138V37.483H97.1719Z" fill="#232734"/>
<path d="M121.745 38.051C119.715 38.051 118.035 37.719 116.716 37.051C115.492 36.4723 114.467 35.5531 113.766 34.4067C113.122 33.3138 112.789 32.0702 112.8 30.8064C112.764 29.7515 112.992 28.704 113.464 27.7566C113.936 26.8091 114.638 25.9908 115.507 25.374C117.314 24.0406 119.893 23.3738 123.242 23.3738H129.528V22.9418C129.528 21.1016 129.021 19.7202 128.006 18.7975C126.924 17.8513 125.512 17.3553 124.066 17.4133C122.756 17.3831 121.466 17.7412 120.365 18.4414C119.845 18.7806 119.405 19.2264 119.076 19.7483C118.747 20.2702 118.536 20.856 118.457 21.4657H113.332C113.45 19.8556 114.066 18.3199 115.097 17.0653C116.132 15.8315 117.461 14.8695 118.965 14.2651C120.597 13.6002 122.349 13.2682 124.115 13.289C127.467 13.289 130.061 14.1544 131.898 15.8852C133.735 17.616 134.654 19.9749 134.654 22.9618V37.479H130.19L129.756 33.4307C129.063 34.7503 128.049 35.88 126.805 36.7189C125.515 37.607 123.822 38.051 121.728 38.051H121.745ZM122.759 33.9587C124.003 33.9992 125.228 33.6566 126.265 32.9786C127.224 32.3196 127.991 31.4245 128.489 30.3824C129.032 29.2591 129.368 28.0494 129.48 26.8101H123.774C121.745 26.8101 120.302 27.1595 119.448 27.8582C119.043 28.1673 118.716 28.5648 118.493 29.0195C118.271 29.4742 118.158 29.9736 118.165 30.4784C118.144 30.9686 118.243 31.4565 118.455 31.9003C118.668 32.3442 118.986 32.7306 119.383 33.0266C120.194 33.6453 121.314 33.956 122.743 33.9587" fill="#232734"/>
<path d="M148.306 37.483C145.953 37.483 144.083 36.9189 142.698 35.7909C141.313 34.6628 140.612 32.6519 140.596 29.7584V18.0814H136.493V13.8411H140.596L141.225 7.84058H145.721V13.8411H152.49V18.0814H145.729V29.7584C145.729 31.0625 146.009 31.9585 146.573 32.4546C147.138 32.9506 148.112 33.1906 149.499 33.1906H152.255V37.483H148.306Z" fill="#232734"/>
<path d="M166.423 38.0552C164.233 38.0947 162.071 37.559 160.161 36.503C158.355 35.4871 156.873 33.9934 155.883 32.1907C154.817 30.2112 154.284 27.9948 154.337 25.7542C154.287 23.4873 154.81 21.2438 155.859 19.2256C156.826 17.392 158.301 15.8662 160.112 14.8253C162.05 13.7477 164.247 13.2046 166.471 13.2531C168.624 13.2017 170.749 13.7374 172.612 14.8013C174.313 15.7951 175.714 17.219 176.67 18.9256C177.642 20.66 178.142 22.6127 178.123 24.5941C178.123 24.9141 178.123 25.2541 178.098 25.6222C178.074 25.9902 178.058 26.3902 178.025 26.8223H159.357C159.514 29.1104 160.28 30.8439 161.654 32.0227C162.955 33.1896 164.656 33.8284 166.415 33.8108C167.704 33.8558 168.977 33.5156 170.067 32.8347C171.049 32.1851 171.814 31.2637 172.267 30.1865H177.392C176.753 32.4042 175.405 34.3597 173.549 35.763C171.628 37.2591 169.25 38.0072 166.415 38.0072L166.423 38.0552ZM166.415 17.3655C164.77 17.3438 163.167 17.8742 161.869 18.8696C160.552 19.8697 159.747 21.3711 159.455 23.374H172.993C172.986 22.5456 172.806 21.7277 172.464 20.9707C172.123 20.2138 171.627 19.534 171.009 18.9736C169.737 17.887 168.096 17.3153 166.415 17.3735" fill="#232734"/>
<path d="M192.728 38.0552C190.534 38.0969 188.368 37.5611 186.454 36.503C184.648 35.4871 183.166 33.9934 182.177 32.1907C181.109 30.2116 180.575 27.9952 180.626 25.7542C180.576 23.4867 181.101 21.2428 182.152 19.2256C183.119 17.392 184.594 15.8662 186.405 14.8253C188.343 13.7477 190.54 13.2046 192.765 13.2531C194.917 13.2017 197.042 13.7374 198.905 14.8013C200.606 15.7951 202.007 17.219 202.963 18.9256C203.934 20.6603 204.433 22.613 204.412 24.5941C204.412 24.9141 204.412 25.2541 204.388 25.6222C204.363 25.9902 204.347 26.3902 204.319 26.8223H185.651C185.813 29.1104 186.579 30.8439 187.948 32.0227C189.25 33.1892 190.952 33.8278 192.712 33.8108C194.001 33.8553 195.274 33.5151 196.365 32.8347C197.347 32.1851 198.112 31.2637 198.564 30.1865H203.69C203.061 32.4222 201.712 34.396 199.847 35.811C197.931 37.3071 195.554 38.0552 192.716 38.0552H192.728ZM192.716 17.4135C191.072 17.3918 189.469 17.9222 188.171 18.9176C186.848 19.9177 186.036 21.4191 185.736 23.422H199.274C199.269 22.5937 199.09 21.7756 198.749 21.0185C198.408 20.2614 197.913 19.5816 197.294 19.0216C196.023 17.935 194.381 17.3633 192.7 17.4215" fill="#232734"/>
<path d="M217.297 30.2346C216.122 30.2463 214.951 30.1024 213.815 29.8066L211.737 31.8067C212.145 32.0516 212.583 32.2439 213.04 32.3788C213.753 32.5753 214.48 32.7183 215.215 32.8068C216.153 32.9348 217.423 33.0588 219.038 33.2068C222.228 33.4949 224.528 34.2496 225.937 35.471C226.641 36.0771 227.198 36.8306 227.568 37.6764C227.938 38.5223 228.112 39.439 228.076 40.3594C228.077 41.7704 227.684 43.1543 226.94 44.3597C226.09 45.6949 224.863 46.7559 223.409 47.412C221.815 48.1881 219.777 48.5774 217.293 48.5801C213.941 48.5801 211.225 47.952 209.144 46.6959C207.064 45.4398 206.025 43.541 206.027 40.9995C206.043 39.9703 206.323 38.9618 206.839 38.0672C207.476 36.9846 208.343 36.05 209.38 35.327C208.755 35.0619 208.159 34.7377 207.598 34.3589C207.13 34.0492 206.685 33.707 206.267 33.3348V32.1908L210.427 27.9944C209.512 27.23 208.785 26.2716 208.299 25.1909C207.813 24.1102 207.582 22.9352 207.622 21.7539C207.61 20.2548 208.008 18.7803 208.775 17.4856C209.559 16.1713 210.708 15.1054 212.086 14.4133C213.701 13.6134 215.491 13.2203 217.297 13.2692C218.577 13.2565 219.851 13.4497 221.067 13.8413H229.996V17.1775L225.743 17.4135C226.522 18.7298 226.923 20.2301 226.903 21.7539C226.924 23.2583 226.531 24.7401 225.767 26.0422C224.98 27.3401 223.842 28.3958 222.48 29.0905C220.876 29.8907 219.094 30.2839 217.297 30.2346ZM210.865 40.4834C210.842 41.1155 211.003 41.7409 211.329 42.2859C211.655 42.8308 212.131 43.2728 212.703 43.5597C214.119 44.2858 215.702 44.6385 217.297 44.5838C219.072 44.5838 220.506 44.2104 221.599 43.4637C222.106 43.1454 222.521 42.7042 222.805 42.1824C223.09 41.6606 223.233 41.0756 223.222 40.4834C223.225 40.0336 223.127 39.5887 222.934 39.1807C222.742 38.7726 222.461 38.4116 222.11 38.1232C221.369 37.4752 219.968 37.0752 217.906 36.9231C216.529 36.8487 215.157 36.7058 213.795 36.4951C212.858 36.9322 212.057 37.6074 211.474 38.4513C211.079 39.065 210.862 39.7731 210.845 40.4994L210.865 40.4834ZM217.297 26.2783C218.601 26.3372 219.882 25.9231 220.897 25.1142C221.817 24.3354 222.277 23.2314 222.277 21.8019C222.277 20.3725 221.817 19.259 220.897 18.4616C219.876 17.6658 218.598 17.2595 217.297 17.3175C215.98 17.2548 214.684 17.6609 213.645 18.4616C212.728 19.227 212.269 20.3404 212.269 21.8019C212.269 23.2634 212.728 24.3674 213.645 25.1142C214.678 25.9283 215.976 26.3423 217.297 26.2783" fill="#232734"/>
<path d="M235.56 9.36079C234.675 9.39019 233.816 9.07218 233.169 8.47672C232.861 8.19448 232.618 7.85093 232.455 7.46885C232.292 7.08677 232.213 6.6749 232.224 6.26054C232.213 5.84621 232.292 5.43442 232.455 5.05238C232.618 4.67034 232.861 4.32676 233.169 4.04436C233.833 3.47692 234.683 3.16455 235.562 3.16455C236.44 3.16455 237.29 3.47692 237.954 4.04436C238.262 4.32676 238.505 4.67034 238.668 5.05238C238.831 5.43442 238.91 5.84621 238.9 6.26054C238.91 6.6749 238.832 7.08677 238.668 7.46885C238.505 7.85093 238.262 8.19448 237.954 8.47672C237.633 8.77205 237.257 9.00215 236.846 9.15386C236.435 9.30556 235.998 9.37588 235.56 9.36079V9.36079ZM232.999 13.8412H238.124V37.4831H233.007L232.999 13.8412Z" fill="#232734"/>
<path d="M251.09 38.051C249.061 38.051 247.381 37.719 246.062 37.051C244.838 36.4723 243.812 35.5531 243.112 34.4067C242.468 33.3138 242.134 32.0702 242.146 30.8064C242.11 29.7515 242.338 28.704 242.81 27.7566C243.282 26.8091 243.984 25.9908 244.853 25.374C246.66 24.0406 249.238 23.3738 252.588 23.3738H258.874V22.9418C258.874 21.1016 258.367 19.7202 257.352 18.7975C256.271 17.8523 254.86 17.3563 253.416 17.4133C252.105 17.3831 250.816 17.7412 249.714 18.4414C249.195 18.7806 248.755 19.2264 248.426 19.7483C248.097 20.2702 247.886 20.856 247.807 21.4657H242.677C242.8 19.8564 243.415 18.3218 244.443 17.0653C245.478 15.8324 246.807 14.8705 248.31 14.2651C249.942 13.6002 251.694 13.2682 253.46 13.289C256.812 13.289 259.407 14.1544 261.244 15.8852C263.081 17.616 264 19.9749 264 22.9618V37.479H259.536L259.101 33.4307C258.409 34.7503 257.395 35.88 256.151 36.7189C254.86 37.607 253.168 38.051 251.074 38.051H251.09ZM252.105 33.9587C253.349 33.9992 254.574 33.6566 255.611 32.9786C256.57 32.3196 257.337 31.4245 257.835 30.3824C258.38 29.2598 258.715 28.0498 258.825 26.8101H253.119C251.09 26.8101 249.648 27.1595 248.793 27.8582C248.389 28.1679 248.063 28.5656 247.84 29.0201C247.618 29.4746 247.505 29.9738 247.511 30.4784C247.49 30.9686 247.589 31.4565 247.801 31.9003C248.013 32.3442 248.331 32.7306 248.728 33.0266C249.54 33.6453 250.66 33.956 252.089 33.9587" fill="#232734"/>
<path d="M42.1574 10.4529L25.1207 0.756086C24.0768 0.118903 22.8326 -0.120117 21.6224 0.0840307C20.8715 0.230356 20.1512 0.500862 19.4918 0.884096C17.905 1.75217 14.3459 3.71233 10.5027 5.8685L8.09208 7.20061L6.79343 7.95667C1.20922 11.1129 0.373214 14.3132 0.251465 15.1053H0.28799C1.50548 11.581 4.34628 10.9049 6.22121 10.8609C7.84453 10.8249 9.51654 11.777 9.56524 11.801L23.197 19.5576C25.9891 21.4258 28.2983 20.5657 29.2845 20.0177C29.6132 19.8336 39.7792 14.0172 39.836 13.9812C39.836 13.9812 42.4293 12.6771 42.9041 12.009C43.245 11.529 42.8797 11.0169 42.6484 10.7689C42.509 10.6407 42.3535 10.5304 42.1858 10.4409" fill="#FAB410"/>
<path d="M28.1809 41.0796C27.8765 40.1697 27.3529 39.3462 26.655 38.6794C26.1275 38.1474 12.8812 29.5146 12.8812 29.5146C12.7594 29.5587 5.19884 34.175 2.84098 35.6111C2.40268 35.8792 1.29477 36.5712 1.34752 37.2913C1.36353 37.5093 1.43278 37.7203 1.54938 37.9063C1.66597 38.0923 1.82645 38.2477 2.01714 38.3594L10.637 43.4278L19.6139 48.4202C20.6699 48.9003 21.8366 49.0948 22.9941 48.9838C24.1516 48.8727 25.2582 48.46 26.2005 47.7881C26.2005 47.7881 29.2645 45.6 28.1809 41.0796Z" fill="#32CCB0"/>
<path d="M44.6532 33.3027C44.6924 32.1692 44.4434 31.0439 43.9288 30.0294C43.4142 29.015 42.6504 28.1435 41.7069 27.4943L29.9378 19.7336C29.9145 19.7199 29.8879 19.7126 29.8607 19.7126C29.8335 19.7126 29.8069 19.7199 29.7836 19.7336C29.1424 20.0857 26.6749 21.7778 23.201 19.5656L9.56518 11.809C9.52054 11.789 7.85258 10.8329 6.22115 10.8689C4.32187 10.9129 1.40802 11.613 0.23111 15.2693L0.0444293 16.0693C-0.139629 18.1984 0.520798 20.3148 1.88689 21.9738C2.26984 22.4087 2.69531 22.8053 3.15714 23.1579L13.9765 30.2145L25.8876 38.1071C26.9835 38.8005 27.7956 39.8532 28.1806 41.0794C29.2601 45.5997 26.1961 47.7799 26.1961 47.7799L40.5421 39.6353C42.2223 38.6792 44.5558 37.2351 44.6491 33.3027" fill="#E5335D"/>
</g>
<defs>
<clipPath id="clip0_602_624">
<rect width="264" height="49" fill="white"/>
</clipPath>
</defs>
</svg>
