<svg width="404" height="273" viewBox="0 0 404 273" fill="none" xmlns="http://www.w3.org/2000/svg">
<g opacity="0.6">
<path d="M-12.4311 264.832C-20.7849 269.655 -31.0773 269.655 -39.4311 264.832L-82.8722 239.751C-91.2261 234.928 -96.3722 226.015 -96.3722 216.369L-96.3722 166.207C-96.3722 156.561 -91.2261 147.648 -82.8722 142.825L-39.4311 117.744C-31.0773 112.921 -20.7849 112.921 -12.4311 117.744L31.0101 142.825C39.3639 147.648 44.5101 156.561 44.5101 166.207L44.5101 216.369C44.5101 226.015 39.3639 234.928 31.0101 239.751L-12.4311 264.832Z" fill="#E8EDFC"/>
<path d="M159.838 264.832C151.485 269.655 141.192 269.655 132.838 264.832L89.3973 239.751C81.0435 234.928 75.8973 226.015 75.8973 216.369L75.8973 166.207C75.8973 156.561 81.0435 147.648 89.3973 142.825L132.838 117.744C141.192 112.921 151.485 112.921 159.838 117.744L203.28 142.825C211.633 147.648 216.78 156.561 216.78 166.207L216.78 216.369C216.78 226.015 211.633 234.928 203.28 239.751L159.838 264.832Z" fill="#E8EDFC"/>
<path d="M73.7486 112.806C65.3948 117.63 55.1024 117.63 46.7486 112.806L3.30745 87.7257C-5.04638 82.9026 -10.1926 73.9892 -10.1926 64.343L-10.1926 14.1815C-10.1926 4.53533 -5.04638 -4.37812 3.30745 -9.2012L46.7486 -34.2819C55.1024 -39.105 65.3948 -39.105 73.7486 -34.282L117.19 -9.2012C125.544 -4.37811 130.69 4.53532 130.69 14.1815L130.69 64.343C130.69 73.9892 125.544 82.9026 117.19 87.7257L73.7486 112.806Z" fill="#E8EDFC"/>
<path d="M249.982 112.806C241.628 117.629 231.336 117.629 222.982 112.806L179.541 87.7256C171.187 82.9025 166.041 73.9891 166.041 64.3429L166.041 14.1814C166.041 4.53523 171.187 -4.37821 179.541 -9.20129L222.982 -34.282C231.336 -39.1051 241.628 -39.1051 249.982 -34.282L293.423 -9.2013C301.777 -4.37821 306.923 4.53523 306.923 14.1814L306.923 64.3429C306.923 73.9891 301.777 82.9025 293.423 87.7256L249.982 112.806Z" fill="#E8EDFC"/>
</g>
</svg>
