<svg width="438" height="557" viewBox="0 0 438 557" fill="none" xmlns="http://www.w3.org/2000/svg">
<g opacity="0.9">
<path d="M444.5 321.206C436.146 326.029 425.854 326.029 417.5 321.206L371.754 294.794C363.4 289.971 358.254 281.058 358.254 271.412L358.254 218.588C358.254 208.942 363.4 200.029 371.754 195.206L417.5 168.794C425.854 163.971 436.146 163.971 444.5 168.794L490.246 195.206C498.6 200.029 503.746 208.942 503.746 218.588L503.746 271.412C503.746 281.058 498.6 289.971 490.246 294.794L444.5 321.206Z" fill="#32CDAC"/>
</g>
<g opacity="0.9">
<path d="M358.5 482.206C350.146 487.029 339.854 487.029 331.5 482.206L285.754 455.794C277.4 450.971 272.254 442.058 272.254 432.412L272.254 379.588C272.254 369.942 277.4 361.029 285.754 356.206L331.5 329.794C339.854 324.971 350.146 324.971 358.5 329.794L404.246 356.206C412.6 361.029 417.746 369.942 417.746 379.588L417.746 432.412C417.746 442.058 412.6 450.971 404.246 455.794L358.5 482.206Z" fill="#335DE6"/>
</g>
<g opacity="0.9">
<path d="M274.5 643.206C266.146 648.029 255.854 648.029 247.5 643.206L201.754 616.794C193.4 611.971 188.254 603.058 188.254 593.412L188.254 540.588C188.254 530.942 193.4 522.029 201.754 517.206L247.5 490.794C255.854 485.971 266.146 485.971 274.5 490.794L320.246 517.206C328.6 522.029 333.746 530.942 333.746 540.588L333.746 593.412C333.746 603.058 328.6 611.971 320.246 616.794L274.5 643.206Z" fill="#FDB400"/>
<path d="M451.5 643.206C443.146 648.029 432.854 648.029 424.5 643.206L378.754 616.794C370.4 611.971 365.254 603.058 365.254 593.412L365.254 540.588C365.254 530.942 370.4 522.029 378.754 517.206L424.5 490.794C432.854 485.971 443.146 485.971 451.5 490.794L497.246 517.206C505.6 522.029 510.746 530.942 510.746 540.588L510.746 593.412C510.746 603.058 505.6 611.971 497.246 616.794L451.5 643.206Z" fill="#B62FA0"/>
</g>
</svg>
